<svg xmlns="http://www.w3.org/2000/svg" width="67" height="43" viewBox="0 0 67 43">
    <g fill="none" fill-rule="evenodd">
        <g fill-rule="nonzero">
            <g>
                <g transform="translate(-1237.000000, -1277.000000) translate(0.903126, 984.239928) translate(1236.096874, 292.760072)">
                    <rect width="66" height="42" x=".334" y=".467" fill="#F2F2F2" rx="9"/>
                    <g fill="#000">
                        <path d="M7.778 2.191c.477-.597.818-1.394.715-2.191-.715.033-1.567.465-2.078 1.03-.443.497-.852 1.327-.75 2.091.818.1 1.602-.332 2.113-.93m.715 1.13c-1.158-.067-2.146.63-2.691.63-.546 0-1.398-.597-2.318-.597-1.192.033-2.282.664-2.896 1.726-1.226 2.092-.34 5.18.886 6.873.58.83 1.295 1.76 2.215 1.727.886-.034 1.227-.565 2.283-.565 1.056 0 1.363.565 2.317.531.954-.033 1.567-.83 2.147-1.693.681-.963.954-1.892.954-1.926-.034-.033-1.874-.697-1.874-2.756-.034-1.726 1.43-2.556 1.499-2.59-.784-1.195-2.079-1.327-2.522-1.36M18.511.963c2.522 0 4.26 1.693 4.26 4.117 0 2.457-1.772 4.15-4.328 4.15h-2.76v4.284h-2.01V.963h4.838zm-2.828 6.64h2.283c1.738 0 2.726-.93 2.726-2.49 0-1.593-.988-2.49-2.726-2.49h-2.317v4.98h.034zm7.599 3.354c0-1.594 1.26-2.59 3.51-2.723l2.589-.132v-.698c0-1.029-.716-1.627-1.874-1.627-1.125 0-1.806.532-1.977 1.328h-1.84c.103-1.66 1.568-2.888 3.885-2.888 2.283 0 3.748 1.162 3.748 3.021v6.309h-1.84v-1.494h-.034c-.545 1.029-1.738 1.66-2.965 1.66-1.908 0-3.202-1.129-3.202-2.756zm6.099-.83v-.73l-2.317.132c-1.159.067-1.806.565-1.806 1.362 0 .796.681 1.328 1.704 1.328 1.362 0 2.419-.897 2.419-2.092zm3.646 6.807v-1.528c.136.033.477.033.613.033.886 0 1.363-.365 1.67-1.294 0-.034.17-.565.17-.565l-3.407-9.164h2.078l2.385 7.47h.034l2.386-7.47H41l-3.51 9.662C36.673 16.303 35.753 17 33.81 17c-.136-.033-.613-.033-.783-.066z" transform="translate(13.000000, 14.000000)"/>
                    </g>
                </g>
            </g>
        </g>
    </g>
</svg>
